{"glyphs":{":":{"x_min":0,"x_max":217,"ha":217,"o":"m 32 -10 b 58 -10 84 14 84 34 b 84 52 74 58 58 58 b 32 58 0 39 0 17 b 0 -2 15 -10 32 -10 z m 92 240 b 118 240 144 264 144 284 b 144 302 134 308 118 308 b 92 308 60 289 60 267 b 60 248 75 240 92 240 z"},"$":{"x_min":0,"x_max":532,"ha":532,"o":"m 386 720 b 342 708 342 675 336 652 b 220 634 119 543 119 433 b 119 342 189 302 256 263 b 233 159 208 56 184 -24 b 107 -16 64 25 64 93 b 64 138 83 187 119 226 b 64 226 -9 184 -9 95 b -9 -2 76 -50 174 -56 b 157 -105 140 -143 125 -162 b 168 -162 199 -125 225 -56 b 342 -46 451 23 451 143 b 451 241 379 282 310 319 l 369 631 b 422 631 441 613 441 582 b 441 539 404 465 404 432 b 404 414 415 395 439 390 b 469 441 487 499 487 551 b 487 612 463 655 374 655 b 379 685 384 710 386 720 z m 182 458 b 182 528 241 608 331 627 b 316 553 296 448 273 339 b 223 367 182 399 182 458 z m 382 113 b 382 39 326 -15 235 -24 b 248 14 267 105 294 241 b 343 211 382 175 382 113 z"},"?":{"x_min":0,"x_max":438,"ha":438,"o":"m 443 587 b 443 673 391 720 308 720 b 184 720 98 613 98 500 b 98 460 109 431 160 423 b 156 442 153 457 153 480 b 153 597 234 692 304 692 b 349 692 383 654 383 579 b 383 402 192 330 192 171 b 192 145 197 137 223 124 b 237 157 235 192 248 237 b 292 392 443 441 443 587 z m 182 -10 b 208 -10 234 13 234 36 b 234 51 224 58 208 58 b 182 58 150 40 150 16 b 150 -1 165 -10 182 -10 z"},"<":{"x_min":0,"x_max":311,"ha":311,"o":"m 201 316 b 159 257 77 187 24 160 l 11 158 b 21 118 122 44 170 44 b 183 44 193 53 199 60 b 108 95 82 114 37 147 b 104 182 206 240 206 294 b 206 300 203 313 201 316 z"},"'":{"x_min":0,"x_max":126,"ha":126,"o":"m 207 692 b 207 707 195 720 182 720 b 152 720 121 654 121 613 b 121 597 126 583 138 576 b 156 615 170 653 207 692 z"},"=":{"x_min":0,"x_max":504,"ha":504,"o":"m 42 106 b 103 116 134 117 195 117 l 296 117 b 324 117 366 122 399 146 b 370 149 302 155 231 155 b 135 155 57 146 42 106 z m 42 206 b 103 216 134 217 195 217 l 296 217 b 324 217 366 222 399 246 b 370 249 302 255 231 255 b 135 255 57 246 42 206 z"},"a":{"x_min":0,"x_max":437,"ha":437,"o":"m 280 212 b 231 140 132 -6 70 -6 b 52 -6 43 6 43 33 b 43 130 155 316 249 316 b 285 316 298 290 298 260 b 298 249 296 236 293 225 b 322 225 342 235 342 268 b 342 313 303 343 251 343 b 121 343 -26 155 -26 36 b -26 -20 6 -47 48 -47 b 97 -47 141 -8 199 69 b 197 58 196 48 196 40 b 196 5 219 -30 268 -30 b 339 -30 424 44 466 152 l 456 162 b 396 56 332 4 296 4 b 272 4 262 28 262 48 b 262 96 320 164 320 187 b 320 202 292 210 280 212 z"},"L":{"x_min":0,"x_max":571,"ha":571,"o":"m 26 -53 b 68 -53 104 -31 137 6 b 227 -34 324 -87 397 -87 b 445 -87 480 -64 502 -2 b 481 -13 459 -18 431 -18 b 357 -18 258 16 166 44 b 224 131 269 265 310 388 l 326 388 b 491 388 566 526 566 618 b 566 698 509 720 469 720 b 368 720 306 580 254 421 b 221 439 197 473 197 524 b 197 542 200 572 210 586 b 172 586 148 542 148 507 b 148 462 185 420 247 400 b 206 274 169 140 122 57 b 77 69 34 78 -1 78 b -55 78 -74 58 -74 34 b -74 1 -39 -53 26 -53 z m 476 695 b 495 695 512 683 512 645 b 512 566 437 408 316 407 b 367 561 414 695 476 695 z m 22 -24 b -19 -24 -48 10 -48 33 b -48 45 -40 52 -15 52 b 17 52 57 39 99 22 b 77 -7 51 -24 22 -24 z"},"3":{"x_min":0,"x_max":511,"ha":511,"o":"m 382 596 b 382 511 318 395 220 351 b 303 329 331 246 331 168 b 331 35 248 -55 169 -55 b 104 -55 63 6 63 69 b 63 104 76 146 95 162 b 90 163 83 163 77 163 b 24 163 -4 106 -4 55 b -4 -7 37 -87 160 -87 b 316 -87 433 42 433 168 b 433 237 398 332 283 361 b 381 387 458 503 458 591 b 458 678 384 720 304 720 b 214 720 117 666 117 569 b 117 535 129 490 154 490 b 168 490 187 504 194 518 b 183 541 178 565 178 585 b 178 654 236 693 292 693 b 338 693 382 667 382 596 z"},";":{"x_min":0,"x_max":214,"ha":214,"o":"m 92 240 b 118 240 144 264 144 284 b 144 302 134 308 118 308 b 92 308 60 289 60 267 b 60 248 75 240 92 240 z m 77 28 b 77 43 65 56 52 56 b 22 56 -9 -10 -9 -51 b -9 -67 -4 -81 8 -88 b 26 -49 40 -11 77 28 z"},"J":{"x_min":0,"x_max":412,"ha":412,"o":"m 138 647 b 201 662 241 666 340 667 b 315 535 242 200 189 54 b 159 -28 134 -51 100 -51 b 59 -51 37 -16 37 44 b 37 89 49 143 73 204 b 63 209 54 212 45 212 b -2 212 -31 122 -31 44 b -31 -68 30 -86 77 -86 b 136 -86 188 -58 241 61 b 320 237 383 576 383 620 b 383 635 376 656 362 667 b 383 667 406 668 433 668 b 454 668 495 672 510 697 b 473 704 380 718 301 718 b 193 718 145 692 138 647 z"},"V":{"x_min":0,"x_max":633,"ha":633,"o":"m 230 -56 b 207 -56 202 -40 202 -17 b 202 97 331 348 331 542 b 331 650 291 720 208 720 b 110 720 25 624 25 542 b 25 503 44 470 96 470 b 90 484 87 503 87 524 b 87 590 116 692 190 692 b 249 692 250 626 250 552 b 250 352 124 91 124 -7 b 124 -73 181 -87 210 -87 b 375 -87 646 364 646 583 b 646 659 613 694 585 694 b 568 694 546 680 527 648 b 560 638 582 610 582 544 b 582 325 343 -56 230 -56 z"},"\"":{"x_min":0,"x_max":246,"ha":246,"o":"m 207 692 b 207 707 195 720 182 720 b 152 720 121 654 121 613 b 121 597 126 583 138 576 b 156 615 170 653 207 692 z m 327 692 b 327 707 315 720 302 720 b 272 720 241 654 241 613 b 241 597 246 583 258 576 b 276 615 290 653 327 692 z"},"7":{"x_min":0,"x_max":404,"ha":404,"o":"m 49 289 b 82 294 149 298 185 299 b 112 152 51 16 51 -42 b 51 -72 67 -87 85 -87 b 103 -87 144 -72 165 -27 b 156 -20 153 -6 153 11 b 153 99 208 216 242 299 b 275 298 299 298 318 298 b 350 298 375 317 397 349 b 389 347 383 346 365 346 b 332 346 303 349 266 351 b 320 470 376 570 426 643 b 446 665 470 702 480 718 b 439 704 374 698 312 698 b 222 698 184 709 129 718 b 121 703 116 689 116 676 b 116 649 140 629 218 629 b 263 629 342 635 379 635 b 333 555 267 454 214 354 l 190 354 b 125 354 51 349 49 289 z"},"S":{"x_min":0,"x_max":537,"ha":537,"o":"m 102 453 b 102 274 406 270 406 98 b 406 2 310 -48 220 -48 b 116 -48 67 18 67 92 b 67 138 86 187 122 226 b 67 226 -6 196 -6 92 b -6 -29 94 -87 203 -87 b 326 -87 464 -12 464 126 b 464 330 165 327 165 476 b 165 559 259 696 385 696 b 428 696 441 680 441 653 b 441 595 382 499 382 443 b 382 421 391 405 415 400 b 447 451 492 547 492 620 b 492 677 465 720 387 720 b 213 720 102 564 102 453 z"},"}":{"x_min":0,"x_max":257,"ha":257,"o":"m 68 129 b 57 43 44 -46 3 -46 b -7 -46 -19 -42 -31 -34 b -27 -75 0 -87 26 -87 b 179 -87 60 301 213 339 b 182 360 178 399 178 434 b 178 524 252 641 252 686 b 252 703 238 720 212 720 b 187 720 150 699 144 670 b 161 683 180 687 185 687 b 191 687 192 680 192 672 b 192 617 121 505 121 419 b 121 393 127 368 146 347 b 92 319 78 216 68 129 z"},"Z":{"x_min":0,"x_max":632,"ha":632,"o":"m 253 310 b 303 317 333 320 383 321 b 322 220 252 119 188 52 b 137 67 90 78 52 78 b -4 78 -25 54 -25 26 b -25 -10 9 -54 67 -54 b 107 -54 150 -33 195 2 b 282 -38 377 -87 447 -87 b 495 -87 530 -64 552 -2 b 531 -13 509 -18 481 -18 b 413 -18 322 11 236 38 b 311 110 388 215 454 323 b 544 325 564 326 586 358 b 555 358 520 363 480 367 b 535 462 581 554 610 623 b 625 631 641 642 660 658 b 650 656 641 656 628 656 b 523 656 422 720 282 720 b 163 720 89 674 89 585 b 89 545 104 520 143 513 b 140 523 139 532 139 548 b 139 658 188 692 252 692 b 341 692 463 627 530 610 b 508 552 465 465 413 373 b 398 374 383 375 368 375 b 288 375 222 361 219 305 z m 62 -27 b 25 -27 1 6 1 28 b 1 41 9 52 38 52 b 69 52 110 38 154 20 b 120 -9 88 -27 62 -27 z"},"x":{"x_min":0,"x_max":419,"ha":419,"o":"m 56 -52 b 80 -21 131 44 187 111 b 196 40 213 -26 272 -26 b 342 -26 419 65 448 151 l 438 161 b 411 102 346 10 297 10 b 248 10 251 96 243 177 b 310 255 375 321 398 321 b 398 328 379 332 373 332 b 355 332 299 281 237 216 b 227 269 206 311 154 311 b 68 311 47 216 10 145 l 19 129 b 61 203 89 272 138 272 b 169 272 175 218 182 156 b 104 69 34 -21 34 -44 b 34 -54 38 -59 44 -59 b 48 -59 52 -57 56 -52 z"},")":{"x_min":0,"x_max":269,"ha":269,"o":"m -71 -63 b -66 -74 -58 -85 -49 -87 b 21 -87 237 134 237 435 b 237 604 169 706 115 720 b 173 640 186 558 186 475 b 186 223 68 35 -71 -63 z"},"&":{"x_min":0,"x_max":617,"ha":617,"o":"m 393 250 b 435 258 458 262 500 264 b 482 105 350 -53 208 -53 b 114 -53 80 26 80 92 b 80 198 167 322 301 344 b 253 385 243 447 243 495 b 243 602 293 699 387 699 b 434 699 455 670 455 629 b 455 577 420 533 373 492 b 381 475 395 460 410 460 b 443 460 486 538 486 613 b 486 682 449 719 377 719 b 257 719 170 618 170 512 b 170 456 194 397 246 354 b 102 340 -13 218 -13 95 b -13 -4 62 -87 182 -87 b 352 -87 507 82 526 265 b 542 265 561 265 584 266 b 597 266 611 267 626 298 b 585 299 532 315 473 315 b 417 315 371 301 369 245 z"},"_":{"x_min":0,"x_max":846,"ha":846,"o":"m -30 -66 b 138 -45 140 -49 543 -47 b 586 -47 651 -40 706 -2 b 566 -1 520 16 322 16 b 124 16 -23 1 -30 -66 z"},"v":{"x_min":0,"x_max":408,"ha":408,"o":"m 426 158 b 400 103 375 84 347 84 b 305 84 300 127 300 160 b 300 249 335 268 335 294 b 335 308 324 332 299 332 b 274 332 256 309 253 219 b 211 126 137 0 88 0 b 70 0 65 17 65 56 b 65 108 74 173 74 217 b 74 242 71 249 48 249 b 19 249 18 238 16 202 b 11 109 10 73 10 71 b 10 6 23 -39 65 -39 b 129 -39 207 64 256 161 b 265 96 296 64 340 64 b 372 64 410 81 439 148 z"},"O":{"x_min":0,"x_max":624,"ha":624,"o":"m 495 707 b 480 715 460 719 435 719 b 244 719 21 418 21 161 b 21 11 99 -87 213 -87 b 374 -87 602 113 602 477 b 602 555 586 670 517 670 b 451 670 336 549 336 478 b 336 456 350 437 384 429 b 400 504 470 643 519 643 b 553 643 564 560 564 505 b 564 268 430 -53 243 -53 b 148 -53 109 40 109 147 b 109 390 312 707 484 707 z"},"(":{"x_min":0,"x_max":259,"ha":259,"o":"m 354 720 b 265 720 47 508 47 189 b 47 59 83 -58 132 -87 b 140 -83 147 -77 152 -66 b 123 -18 105 62 105 162 b 105 362 177 594 354 720 z"},"C":{"x_min":0,"x_max":535,"ha":535,"o":"m 436 689 b 470 689 485 671 485 644 b 485 587 419 489 378 443 b 386 426 398 420 409 420 b 464 420 525 555 525 633 b 525 695 487 719 433 719 b 243 719 22 421 22 157 b 22 35 77 -87 219 -87 b 353 -87 462 21 529 152 l 515 162 b 462 48 349 -53 243 -53 b 142 -53 102 41 102 140 b 102 365 292 689 436 689 z"},"W":{"x_min":0,"x_max":907,"ha":907,"o":"m 526 395 b 509 262 333 -56 232 -56 b 208 -56 202 -42 202 -17 b 202 98 331 348 331 542 b 331 650 291 720 208 720 b 110 720 25 624 25 542 b 25 503 44 470 96 470 b 90 484 87 503 87 524 b 87 590 116 692 190 692 b 249 692 250 626 250 552 b 250 352 124 91 124 -7 b 124 -73 181 -87 210 -87 b 275 -87 349 -18 417 78 b 405 40 397 8 397 -12 b 397 -64 445 -87 483 -87 b 648 -87 919 364 919 583 b 919 659 886 694 858 694 b 841 694 819 680 800 648 b 833 638 855 610 855 544 b 855 325 616 -56 503 -56 b 479 -56 475 -39 475 -14 b 475 116 586 294 586 346 b 586 366 570 395 526 395 z"},"A":{"x_min":0,"x_max":593,"ha":593,"o":"m 27 283 b 52 283 86 282 135 278 b 50 145 -17 20 -17 -35 b -17 -48 -13 -70 17 -87 b 67 31 128 157 191 273 b 232 268 280 262 339 253 b 328 198 322 147 322 104 b 322 23 345 -30 400 -30 b 466 -30 533 45 573 152 l 563 162 b 511 61 467 14 432 14 b 405 14 395 43 395 94 b 395 269 511 656 551 688 b 531 708 512 720 498 720 b 485 720 470 711 450 692 b 388 634 270 481 168 328 b 142 332 118 335 96 335 b 45 335 6 321 -8 283 z m 466 657 b 425 565 375 420 346 288 b 308 297 262 309 217 319 b 310 485 404 619 466 657 z"},"f":{"x_min":0,"x_max":313,"ha":313,"o":"m 331 162 b 294 99 267 64 220 64 b 157 64 146 129 133 220 b 131 234 122 249 108 252 b 114 269 120 286 127 302 b 254 391 394 562 394 676 b 394 700 388 720 360 720 b 194 720 -68 13 -68 -192 b -68 -266 -34 -280 -13 -280 b 63 -280 140 -96 141 71 b 163 51 191 38 215 38 b 254 38 312 72 346 152 z m 115 60 b 115 -45 51 -232 13 -232 b 1 -232 -6 -214 -6 -184 b -6 -116 30 27 81 177 b 105 130 115 101 115 60 z m 341 653 b 350 653 355 649 355 639 b 355 598 272 462 143 343 b 211 512 289 653 341 653 z"},"Q":{"x_min":0,"x_max":694,"ha":694,"o":"m 431 720 b 214 720 35 448 35 199 b 35 127 50 60 112 60 b 106 88 104 116 104 144 b 104 374 239 693 432 693 b 525 693 564 618 564 509 b 564 367 497 120 378 13 b 324 46 274 77 219 77 b 166 77 146 48 146 25 b 146 3 164 -63 256 -63 b 290 -63 324 -53 356 -37 b 404 -78 454 -119 516 -119 b 547 -119 593 -109 614 -38 b 594 -44 585 -50 556 -50 b 501 -50 453 -29 408 -4 b 538 97 634 309 634 477 b 634 626 559 720 431 720 z m 256 -38 b 188 -38 172 6 172 24 b 172 35 178 51 209 51 b 253 51 293 19 334 -17 b 310 -30 284 -38 256 -38 z"},"w":{"x_min":0,"x_max":618,"ha":618,"o":"m 636 158 b 610 103 585 84 557 84 b 515 84 510 127 510 160 b 510 249 545 268 545 294 b 545 308 534 332 509 332 b 484 332 459 309 459 205 b 415 111 345 0 304 0 b 288 0 282 18 282 49 b 282 117 295 209 310 258 b 311 262 312 266 312 269 b 312 284 300 291 283 291 b 264 291 259 283 243 201 b 197 110 139 10 93 10 b 61 10 58 60 58 77 b 58 143 103 244 125 278 b 125 290 95 298 88 298 b 58 298 0 147 0 71 b 0 16 31 -30 75 -30 b 136 -30 191 60 235 148 b 231 117 228 85 228 58 b 228 5 240 -39 282 -39 b 343 -39 416 55 466 148 b 479 92 509 64 550 64 b 582 64 620 81 649 148 z"},"-":{"x_min":0,"x_max":485,"ha":485,"o":"m 26 144 b 89 154 120 155 185 155 l 280 155 b 308 155 350 160 383 184 b 354 187 286 193 215 193 b 119 193 41 184 26 144 z"},"E":{"x_min":0,"x_max":499,"ha":499,"o":"m 384 696 b 431 696 455 672 455 631 b 455 579 418 533 371 492 b 379 475 393 460 408 460 b 441 460 488 536 488 611 b 488 680 448 719 374 719 b 255 719 168 618 168 512 b 168 456 192 397 244 354 b 100 340 -15 218 -15 95 b -15 -4 60 -87 180 -87 b 314 -87 422 16 492 152 l 478 162 b 425 48 312 -53 206 -53 b 112 -53 78 26 78 92 b 78 198 165 322 299 344 b 251 385 241 447 241 495 b 241 604 291 696 384 696 z"},"s":{"x_min":0,"x_max":346,"ha":346,"o":"m -20 80 b -20 20 11 -51 105 -51 b 162 -51 212 -25 233 32 b 293 41 348 78 373 151 l 364 161 b 325 86 284 56 238 48 b 242 63 244 79 244 97 b 244 189 192 272 192 338 b 192 361 198 375 198 382 b 198 389 193 395 182 395 b 163 395 143 376 143 327 l 143 315 b 118 262 84 214 44 170 b 33 158 -20 159 -20 80 z m 179 96 b 179 76 177 62 175 49 b 114 62 71 104 51 147 b 81 177 117 226 148 277 b 158 222 179 159 179 96 z m 107 -16 b 55 -16 25 33 25 81 b 25 102 31 115 47 116 b 68 82 114 44 170 33 b 155 -11 123 -16 107 -16 z"},">":{"x_min":0,"x_max":325,"ha":325,"o":"m 56 316 b 54 313 51 300 51 294 b 51 240 153 182 220 147 b 175 114 149 95 58 60 b 64 53 74 44 87 44 b 135 44 236 118 246 158 l 233 160 b 180 187 98 257 56 316 z"},"l":{"x_min":0,"x_max":237,"ha":237,"o":"m 347 646 b 347 674 335 720 314 720 b 246 720 3 265 3 73 b 3 14 26 -30 83 -30 b 155 -30 218 40 271 154 l 256 162 b 221 84 165 2 112 2 b 83 2 68 27 68 79 b 68 109 73 144 81 180 b 227 301 347 557 347 646 z m 309 639 b 312 639 316 636 316 623 b 316 556 206 331 90 214 b 145 407 282 639 309 639 z"},"8":{"x_min":0,"x_max":528,"ha":528,"o":"m 19 77 b 19 9 59 -87 194 -87 b 318 -87 442 -7 442 122 b 442 214 378 282 316 349 b 393 410 459 477 459 575 b 459 669 398 719 308 719 b 221 719 123 673 123 554 b 123 464 178 398 235 336 b 132 259 19 191 19 77 z m 80 80 b 80 175 169 240 261 307 b 313 250 360 193 360 118 b 360 18 277 -48 204 -48 b 142 -48 80 1 80 80 z m 201 567 b 201 659 264 692 309 692 b 358 692 401 654 401 576 b 401 493 353 432 290 379 b 242 434 201 492 201 567 z"},"\\":{"x_min":0,"x_max":561,"ha":561,"o":"m 154 720 b 176 663 260 160 298 22 b 332 -102 368 -152 425 -162 b 372 -129 286 491 215 675 b 208 694 186 720 154 720 z"},"e":{"x_min":0,"x_max":334,"ha":334,"o":"m 302 299 b 302 348 271 360 240 360 b 122 360 -14 191 -14 72 b -14 7 27 -44 108 -44 b 207 -44 311 33 365 153 l 353 162 b 303 66 214 -15 129 -15 b 67 -15 50 28 50 69 b 50 79 51 92 54 105 b 168 116 302 197 302 299 z m 237 329 b 254 329 258 321 258 306 b 258 220 130 149 59 124 b 86 219 173 329 237 329 z"},"b":{"x_min":0,"x_max":395,"ha":395,"o":"m 105 270 b 223 341 333 558 333 651 b 333 679 323 714 301 714 b 219 714 -10 254 -10 53 b -10 -24 24 -73 93 -73 b 163 -73 216 -23 252 38 b 262 36 273 35 284 35 b 335 35 389 57 427 149 l 415 162 b 392 116 358 53 287 53 b 278 53 269 54 261 56 b 283 100 296 148 296 192 b 296 252 271 284 233 284 b 188 284 149 242 149 178 b 149 128 173 74 222 49 b 196 0 150 -35 112 -35 b 72 -35 57 4 57 59 b 57 143 93 248 105 270 z m 295 633 b 298 633 299 631 299 625 b 299 574 208 383 116 309 b 162 462 273 633 295 633 z m 184 173 b 184 214 202 245 222 245 b 241 245 255 216 255 170 b 255 134 246 99 232 69 b 197 92 184 137 184 173 z"},"%":{"x_min":0,"x_max":699,"ha":699,"o":"m 317 565 b 317 628 284 669 233 669 b 147 669 88 544 88 455 b 88 398 113 347 170 347 b 256 347 317 480 317 565 z m 233 633 b 256 633 265 608 265 573 b 265 497 224 385 176 385 b 155 385 143 410 143 447 b 143 510 174 633 233 633 z m 582 720 b 550 720 505 694 498 675 b 427 491 161 6 68 -87 b 125 -87 184 -13 253 97 b 339 235 560 663 582 720 z m 640 218 b 640 281 607 322 556 322 b 470 322 411 197 411 108 b 411 51 436 0 493 0 b 579 0 640 134 640 218 z m 556 286 b 579 286 588 261 588 226 b 588 150 547 38 499 38 b 478 38 466 63 466 101 b 466 163 497 286 556 286 z"},"m":{"x_min":0,"x_max":647,"ha":647,"o":"m 259 -22 b 272 5 286 39 307 71 b 369 166 405 220 438 220 b 453 220 467 210 467 184 b 467 145 437 91 437 42 b 437 2 457 -31 504 -31 b 584 -31 645 64 677 148 l 665 162 b 634 94 586 4 531 4 b 508 4 501 20 501 38 b 501 80 538 152 538 205 b 538 239 523 269 481 269 b 413 269 357 191 315 115 b 326 142 346 205 346 256 b 346 297 333 332 292 332 b 220 332 135 227 81 142 b 96 192 107 238 107 256 b 107 272 98 282 80 282 b 61 282 42 270 34 261 b 33 173 -35 9 -35 -6 b -35 -16 0 -27 19 -27 b 68 108 188 266 246 266 b 264 266 271 251 271 228 b 271 158 208 16 208 -2 b 208 -16 243 -22 259 -22 z"},"#":{"x_min":0,"x_max":669,"ha":669,"o":"m 93 279 b 146 284 187 286 229 289 b 225 274 218 240 215 225 b 96 222 3 206 -1 155 l 55 160 b 113 165 157 168 202 170 b 166 16 126 -120 92 -162 b 174 -162 201 -49 247 172 l 373 172 b 337 19 297 -119 262 -162 b 343 -162 373 -48 418 175 b 447 176 478 176 514 176 b 545 176 578 177 614 208 b 560 208 497 214 427 218 b 430 237 438 274 442 294 b 474 294 509 295 551 295 b 582 295 616 296 652 327 b 594 327 526 334 450 338 b 485 516 516 686 523 720 b 486 711 482 694 478 675 b 462 600 440 482 410 340 b 370 342 329 344 286 344 l 282 344 b 316 520 346 686 353 720 b 316 711 312 694 308 675 b 292 601 271 484 241 343 b 128 340 40 323 36 274 z m 271 291 b 308 292 348 293 400 293 l 384 221 b 344 223 301 225 258 225 z"},",":{"x_min":0,"x_max":197,"ha":197,"o":"m 66 28 b 66 43 54 56 41 56 b 11 56 -20 -10 -20 -51 b -20 -67 -15 -81 -3 -88 b 15 -49 29 -11 66 28 z"},"n":{"x_min":0,"x_max":467,"ha":467,"o":"m -38 7 b -27 -8 -6 -15 15 -15 b 67 73 159 232 242 232 b 265 232 282 220 282 183 b 282 136 253 85 253 44 b 253 7 276 -20 323 -20 b 398 -20 454 51 496 149 l 485 162 b 448 88 395 6 345 6 b 328 6 315 16 315 44 b 315 93 356 140 356 202 b 356 247 334 292 282 292 b 206 292 127 197 74 116 b 92 171 106 227 106 248 b 106 264 97 274 79 274 b 60 274 41 262 33 253 b 32 166 -38 19 -38 7 z"},"h":{"x_min":0,"x_max":477,"ha":477,"o":"m 247 39 b 247 3 270 -24 316 -24 b 393 -24 466 52 508 150 l 495 162 b 455 75 384 2 339 2 b 322 2 309 13 309 40 b 309 89 352 146 352 208 b 352 252 331 298 276 298 b 187 298 120 176 73 39 b 72 48 71 58 71 73 b 71 127 83 211 108 270 b 226 341 338 558 338 651 b 338 678 329 714 305 714 b 218 714 6 257 6 66 b 6 13 22 -38 47 -38 b 104 -38 141 238 240 238 b 261 238 278 225 278 190 b 278 142 247 81 247 39 z m 300 633 b 303 633 304 631 304 625 b 304 574 213 383 121 309 b 171 472 280 633 300 633 z"},"z":{"x_min":0,"x_max":318,"ha":318,"o":"m 346 150 l 335 162 b 316 105 274 59 224 21 b 212 54 189 84 154 111 b 214 141 272 198 272 271 b 272 321 234 353 189 353 b 98 353 55 263 11 144 l 23 134 b 69 232 108 315 175 315 b 201 315 214 292 214 262 b 214 210 175 135 105 115 b 157 74 174 36 174 -12 b 58 -89 -71 -143 -71 -229 b -71 -266 -46 -280 -5 -280 b 117 -280 234 -152 234 -31 b 234 -20 233 -8 230 2 b 283 42 327 90 346 150 z m -12 -251 b -30 -251 -43 -241 -43 -218 b -43 -151 67 -103 173 -35 b 160 -173 37 -251 -12 -251 z"},"B":{"x_min":0,"x_max":609,"ha":609,"o":"m 564 561 b 564 700 422 720 333 720 b 229 720 163 693 96 665 b 96 655 118 638 128 638 b 141 638 182 677 266 692 b 178 521 74 197 54 131 b 49 114 40 90 40 74 b 40 47 66 26 99 26 b 129 129 158 240 189 348 b 211 348 238 349 264 349 b 378 349 516 332 516 223 b 516 102 348 -14 118 -14 b 50 -14 33 -4 24 -4 b 21 -4 19 -5 19 -7 b 19 -64 57 -87 130 -87 b 279 -87 563 10 563 205 b 563 268 533 354 335 366 b 438 383 564 430 564 561 z m 335 699 b 421 699 504 673 504 569 b 504 423 341 376 195 371 b 230 490 268 604 316 698 b 322 699 328 699 335 699 z"},"K":{"x_min":0,"x_max":591,"ha":591,"o":"m 596 720 b 534 621 412 504 323 433 b 287 404 256 383 237 357 l 321 629 b 325 642 329 657 329 672 b 329 696 319 720 283 720 b 208 720 83 618 83 527 b 83 495 99 470 143 470 b 140 479 138 492 138 504 b 138 570 197 692 262 692 b 280 692 286 682 286 668 b 286 652 277 630 273 619 b 116 161 72 24 30 -69 b 63 -69 105 -69 119 -23 l 216 291 b 275 160 422 -87 495 -87 b 518 -87 540 -72 549 -54 b 378 86 322 185 241 322 b 366 406 605 574 605 676 b 605 687 602 712 596 720 z"},"R":{"x_min":0,"x_max":578,"ha":578,"o":"m 515 -88 b 344 51 290 175 208 316 b 277 316 581 335 581 533 b 581 666 443 720 328 720 b 238 720 154 687 103 665 b 103 655 126 638 134 638 b 147 638 198 681 283 695 b 180 461 115 280 30 18 b 24 1 16 -22 16 -37 b 16 -66 48 -87 82 -87 b 112 15 147 146 185 277 b 245 136 389 -121 464 -121 b 483 -121 507 -105 515 -88 z m 514 554 b 514 404 346 341 201 332 b 243 472 289 607 335 699 b 425 699 514 663 514 554 z"},"T":{"x_min":0,"x_max":491,"ha":491,"o":"m 69 632 b 156 647 210 650 349 652 b 278 500 190 261 145 130 b 128 81 108 23 108 -16 b 108 -58 127 -87 187 -87 b 186 -80 186 -72 186 -65 b 186 1 207 69 236 175 b 292 379 350 545 393 652 b 417 652 441 651 464 651 b 529 651 589 657 635 698 b 538 699 450 720 313 720 b 175 720 74 699 69 632 z"},"P":{"x_min":0,"x_max":528,"ha":528,"o":"m 205 296 b 270 296 586 318 586 527 b 586 655 447 720 329 720 b 245 720 159 687 108 665 b 108 655 131 638 139 638 b 150 638 201 678 278 693 b 175 460 116 279 32 18 b 26 1 18 -22 18 -37 b 18 -66 53 -87 87 -87 b 118 19 155 159 195 296 z m 519 544 b 519 391 346 320 199 312 b 242 459 289 602 338 699 b 432 698 519 652 519 544 z"},"|":{"x_min":0,"x_max":260,"ha":260,"o":"m 149 697 b 121 599 102 21 45 -132 b 105 -132 132 -63 144 52 b 157 174 177 524 177 640 b 177 657 172 687 149 697 z"},"t":{"x_min":0,"x_max":286,"ha":286,"o":"m 304 319 b 254 314 205 313 161 313 l 124 313 b 182 436 257 540 257 575 b 257 589 246 597 236 597 b 195 597 118 460 62 316 b 43 317 28 319 18 320 l 18 302 b 29 298 41 296 54 294 b 20 203 -4 112 -4 53 b -4 -13 27 -46 85 -46 b 179 -46 269 39 317 152 l 304 162 b 253 57 183 -9 114 -9 b 74 -9 58 13 58 71 b 58 142 82 218 113 289 l 128 289 b 173 289 231 293 304 301 z"},"M":{"x_min":0,"x_max":764,"ha":764,"o":"m 743 700 b 730 705 719 707 711 707 b 689 707 679 692 661 666 b 616 600 429 306 376 102 b 380 214 397 371 397 496 b 397 677 361 720 296 720 b 208 720 101 640 101 552 b 101 519 116 470 154 470 b 153 479 152 488 152 501 b 152 582 191 683 276 683 b 304 683 310 672 310 657 b 310 642 304 625 300 616 b 138 252 -1 -51 -17 -87 b 56 -87 114 105 327 602 b 328 588 329 572 329 546 b 329 440 313 231 313 121 b 313 44 321 -1 357 -1 b 363 -1 364 0 372 3 b 413 125 544 441 640 564 b 588 368 540 184 540 25 b 540 -57 553 -87 622 -87 b 613 -54 607 -50 607 -5 b 607 122 656 396 698 560 b 715 628 733 676 743 700 z"},"g":{"x_min":0,"x_max":390,"ha":390,"o":"m 295 295 b 298 296 307 303 307 315 b 307 332 291 347 253 347 b 145 347 -12 227 -12 88 b -12 30 15 -9 63 -9 b 119 -9 175 46 226 119 b 210 54 193 0 175 -46 b 91 -88 -20 -141 -20 -222 b -20 -263 9 -280 38 -280 b 113 -280 177 -171 233 -36 b 295 -6 389 62 420 152 l 407 162 b 377 86 309 24 244 -7 b 290 112 321 234 321 267 b 313 269 306 270 300 270 b 267 270 253 238 249 219 l 237 166 b 186 93 127 34 89 34 b 68 34 54 51 54 83 b 54 167 150 310 255 310 b 275 310 288 305 295 295 z m 35 -248 b 21 -248 11 -234 11 -213 b 11 -156 85 -113 164 -73 b 111 -201 61 -248 35 -248 z"},"j":{"x_min":0,"x_max":219,"ha":219,"o":"m 143 317 b 143 334 134 347 119 347 b 78 347 54 223 9 141 l 18 126 b 27 142 45 169 65 205 b 48 105 24 23 -2 -41 b -28 -54 -47 -62 -66 -73 b -140 -114 -192 -180 -192 -229 b -192 -258 -174 -280 -140 -280 b -59 -280 8 -160 53 -36 b 114 0 200 31 250 150 l 237 157 b 180 52 120 26 63 -8 b 112 136 143 287 143 317 z m -149 -246 b -158 -246 -166 -240 -166 -222 b -166 -180 -116 -123 -15 -73 b -67 -188 -123 -246 -149 -246 z m 135 437 b 168 437 201 464 201 494 b 201 513 187 522 168 522 b 136 522 95 499 95 469 b 95 448 114 437 135 437 z"},"i":{"x_min":0,"x_max":242,"ha":242,"o":"m 139 339 b 71 339 -5 134 -5 58 b -5 11 20 -26 72 -26 b 150 -26 230 37 269 152 l 260 162 b 203 48 151 9 106 9 b 73 9 57 21 57 69 b 57 163 161 284 161 317 b 161 331 151 339 139 339 z m 192 432 b 224 432 257 461 257 486 b 257 509 244 517 224 517 b 192 517 151 493 151 465 b 151 442 170 432 192 432 z"},"y":{"x_min":0,"x_max":390,"ha":390,"o":"m 321 272 b 313 274 306 275 300 275 b 267 275 253 243 249 224 b 246 208 243 193 239 178 b 199 112 144 50 106 50 b 79 50 70 66 70 90 b 70 144 113 252 136 286 b 136 298 100 309 92 309 b 63 309 4 165 4 91 b 4 35 45 10 84 10 b 138 10 187 67 230 137 b 212 64 193 3 174 -46 b 73 -97 -20 -142 -20 -227 b -20 -262 9 -280 43 -280 b 112 -280 180 -163 232 -35 b 306 -1 391 56 421 152 l 408 162 b 370 70 305 16 243 -8 b 290 113 321 239 321 272 z m 38 -248 b 18 -248 11 -229 11 -218 b 11 -152 81 -114 164 -70 b 110 -202 58 -248 38 -248 z"},"@":{"x_min":0,"x_max":584,"ha":584,"o":"m 342 202 b 303 145 224 28 174 28 b 160 28 152 37 152 60 b 152 137 242 285 318 285 b 346 285 356 265 356 240 b 356 232 355 221 352 213 b 376 213 392 221 392 247 b 392 283 360 307 319 307 b 215 307 97 157 97 61 b 97 17 123 -5 156 -5 b 196 -5 241 26 287 88 b 286 81 285 76 285 68 b 285 32 305 9 349 9 b 444 9 523 116 523 214 b 523 304 458 395 312 395 b 122 395 -7 241 -7 88 b -7 -19 56 -121 206 -121 b 304 -121 381 -77 432 -19 l 426 -11 b 359 -70 283 -96 212 -96 b 79 -96 29 -6 29 84 b 29 219 141 365 312 365 b 439 365 491 284 491 208 b 491 123 425 36 362 36 b 333 36 328 55 328 69 b 328 111 374 163 374 182 b 374 194 352 201 342 202 z"},".":{"x_min":0,"x_max":215,"ha":215,"o":"m 30 -10 b 56 -10 82 14 82 34 b 82 52 72 58 56 58 b 30 58 -2 39 -2 17 b -2 -2 13 -10 30 -10 z"},"p":{"x_min":0,"x_max":392,"ha":392,"o":"m 124 -26 b 262 -26 360 121 360 225 b 360 293 318 339 259 339 b 181 339 120 258 86 192 b 100 257 109 308 109 327 b 109 350 95 373 61 373 b 45 373 43 368 42 356 b -6 -45 -47 -77 -94 -242 b -95 -246 -80 -280 -63 -280 b -59 -280 -54 -278 -51 -275 b -28 -253 25 -68 72 132 b 97 190 168 293 238 293 b 278 293 295 258 295 216 b 295 114 198 -3 91 -3 b 77 -3 66 -3 66 -8 b 66 -16 89 -26 124 -26 z"},"X":{"x_min":0,"x_max":663,"ha":663,"o":"m 597 722 b 557 622 482 492 375 344 b 372 547 386 720 255 720 b 156 720 67 622 67 539 b 67 501 85 470 136 470 b 131 482 128 500 128 519 b 128 589 165 692 232 692 b 288 692 289 622 291 468 b 293 340 295 334 301 246 b 234 161 159 71 74 -21 b 44 -53 30 -69 25 -112 b 69 -76 186 53 304 198 b 312 77 332 -87 443 -87 b 522 -87 576 -3 652 152 l 640 162 b 568 34 510 -50 470 -50 b 402 -50 381 119 376 289 b 506 455 620 620 620 674 b 620 692 607 715 597 722 z"},"*":{"x_min":0,"x_max":392,"ha":392,"o":"m 153 408 b 188 408 222 466 256 532 b 290 481 328 424 345 404 b 345 474 316 503 293 539 l 423 551 b 402 574 369 580 337 580 b 318 580 300 578 285 577 b 310 631 340 685 352 718 b 307 707 287 653 257 588 b 229 631 213 667 189 718 b 183 711 175 704 175 692 b 175 666 195 623 223 577 b 172 575 139 574 106 572 b 113 542 161 539 195 539 l 221 539 b 196 487 187 457 153 408 z"},"Y":{"x_min":0,"x_max":667,"ha":667,"o":"m 177 -18 b 136 -32 117 -59 117 -93 b 117 -154 179 -187 255 -187 b 448 -187 502 23 544 194 b 625 523 640 578 709 688 b 690 708 666 720 653 720 b 610 720 568 585 533 440 b 488 324 414 191 321 191 b 271 191 251 229 251 287 b 251 394 318 544 318 619 b 318 667 290 720 214 720 b 110 720 23 622 23 539 b 23 501 41 470 92 470 b 87 482 84 500 84 519 b 84 585 118 692 192 692 b 235 692 249 656 249 614 b 249 523 181 375 181 270 b 181 200 211 151 290 151 b 386 151 454 224 507 326 b 489 243 475 166 465 121 b 444 27 391 -162 256 -162 b 198 -162 169 -127 169 -72 b 169 -57 171 -38 177 -18 z"},"c":{"x_min":0,"x_max":324,"ha":324,"o":"m 214 338 b 112 338 -5 206 -5 72 b -5 -14 43 -56 107 -56 b 204 -56 309 32 355 153 l 342 163 b 299 52 209 -18 130 -18 b 73 -18 57 24 57 65 b 57 163 150 310 221 310 b 238 310 243 301 243 285 b 243 255 226 216 206 206 b 215 195 225 191 235 191 b 266 191 285 225 285 264 b 285 299 269 338 214 338 z"},"!":{"x_min":0,"x_max":261,"ha":261,"o":"m 30 103 b 104 211 324 641 324 697 b 324 710 315 720 304 720 b 249 720 159 486 85 293 b 63 236 30 151 30 103 z m 1 -10 b 27 -10 53 14 53 34 b 53 52 43 58 27 58 b 1 58 -31 39 -31 17 b -31 -2 -16 -10 1 -10 z"},"/":{"x_min":0,"x_max":331,"ha":331,"o":"m 386 720 b 354 720 309 694 302 675 b 231 491 15 -69 -78 -162 b -21 -162 47 -97 97 22 b 155 160 364 663 386 720 z"},"[":{"x_min":0,"x_max":394,"ha":394,"o":"m 316 -11 b 252 -30 220 -31 76 -32 b 108 82 163 489 221 657 b 257 651 293 640 328 640 b 382 640 429 647 433 720 b 405 704 368 700 333 700 b 305 700 278 703 261 703 b 220 703 162 667 131 498 b 32 -42 28 -52 19 -67 b 48 -74 123 -87 186 -87 b 272 -87 311 -62 316 -11 z"},"6":{"x_min":0,"x_max":562,"ha":562,"o":"m 419 697 b 464 697 474 671 474 642 b 474 629 472 625 472 614 b 509 625 518 643 518 662 b 518 702 478 720 424 720 b 192 720 39 388 39 160 b 39 23 94 -87 243 -87 b 395 -87 502 29 502 180 b 502 315 418 374 319 374 b 257 374 194 350 150 309 b 192 490 291 697 419 697 z m 128 140 b 128 244 169 340 290 340 b 356 340 415 294 415 186 b 415 72 350 -55 248 -55 b 148 -55 128 66 128 140 z"},"r":{"x_min":0,"x_max":349,"ha":349,"o":"m 10 110 b 31 146 68 223 99 302 b 124 284 155 269 155 226 b 155 173 100 98 100 39 b 100 0 128 -26 173 -26 b 258 -26 344 64 382 149 l 369 159 b 344 101 262 10 199 10 b 183 10 169 16 169 40 b 169 82 219 148 219 209 b 219 294 117 311 117 348 b 117 352 128 378 128 385 b 128 392 128 409 114 409 b 103 409 72 381 72 341 b 72 331 76 323 82 317 b 53 232 19 162 1 127 z"},"2":{"x_min":0,"x_max":560,"ha":560,"o":"m 188 423 b 179 448 176 464 176 491 b 176 605 225 693 313 693 b 374 693 419 651 419 551 b 419 374 273 142 151 34 b 111 42 75 48 46 48 b -6 48 -29 30 -29 0 b -29 -32 -1 -54 39 -54 b 73 -54 111 -38 153 -11 b 167 -16 181 -23 196 -29 b 262 -57 338 -87 388 -87 b 441 -87 473 -57 490 11 b 458 -8 439 -14 414 -14 b 366 -14 296 1 227 17 l 199 23 b 294 101 389 224 442 341 b 470 403 489 471 489 538 b 489 639 428 720 329 720 b 201 720 113 619 113 512 b 113 457 137 435 183 423 z m 38 -27 b 20 -27 2 -17 2 -2 b 2 7 10 22 37 22 b 55 22 82 15 113 4 b 85 -15 59 -27 38 -27 z"},"{":{"x_min":0,"x_max":261,"ha":261,"o":"m 131 325 b 230 335 181 681 267 681 b 277 681 289 673 300 667 b 296 708 270 720 245 720 b 91 720 212 346 65 331 b 95 307 101 273 101 233 b 101 154 27 47 27 -21 b 27 -55 42 -87 92 -87 b 114 -87 137 -79 139 -54 b 133 -59 122 -62 114 -62 b 89 -62 81 -48 81 -30 b 81 50 157 132 157 256 b 157 287 149 306 131 325 z"},"9":{"x_min":0,"x_max":567,"ha":567,"o":"m 177 -64 b 130 -64 120 -36 120 -6 b 120 5 121 9 121 19 b 86 8 77 -9 77 -27 b 77 -69 118 -87 173 -87 b 399 -87 539 232 539 458 b 539 602 482 720 326 720 b 178 720 76 608 76 462 b 76 321 164 259 266 259 b 327 259 390 282 432 324 b 396 143 305 -64 177 -64 z m 294 293 b 226 293 163 341 163 456 b 163 567 223 688 322 688 b 424 688 447 568 447 469 b 447 365 401 293 294 293 z"}," ":{"x_min":0,"x_max":260,"ha":260,"o":""},"I":{"x_min":0,"x_max":460,"ha":460,"o":"m 82 641 b 156 655 203 659 307 661 b 266 544 198 149 125 -8 b 41 -8 -31 -15 -38 -88 b 59 -69 155 -72 263 -71 b 291 -71 337 -67 376 -28 b 313 -27 228 -13 159 -9 b 196 16 221 76 243 162 b 276 295 329 591 342 661 b 373 662 409 662 451 662 b 478 662 516 665 548 697 b 501 704 385 718 286 718 b 151 718 91 692 82 641 z"},"H":{"x_min":0,"x_max":618,"ha":618,"o":"m 632 720 b 603 720 584 683 577 668 b 559 630 515 496 476 368 b 425 373 369 377 306 377 b 286 377 266 376 248 375 l 326 629 b 330 642 334 657 334 672 b 334 696 324 720 288 720 b 213 720 88 618 88 527 b 88 495 104 470 148 470 b 145 479 143 492 143 504 b 143 570 202 692 267 692 b 279 692 281 688 281 678 b 281 658 272 634 267 619 b 233 521 205 438 182 368 b 133 358 100 340 99 307 l 165 314 b 94 96 71 5 55 -87 b 76 -87 110 -69 124 -23 b 132 4 182 165 231 320 b 290 325 342 326 464 327 b 441 252 421 182 411 142 b 395 80 387 26 387 -9 b 387 -60 404 -82 456 -87 b 455 -78 454 -67 454 -51 b 454 -2 463 77 487 191 b 495 232 506 279 518 328 b 544 328 572 329 602 360 b 578 360 553 363 527 364 b 562 500 604 646 632 720 z"},"4":{"x_min":0,"x_max":479,"ha":479,"o":"m 422 720 b 329 557 106 388 0 263 b -12 253 -18 239 -18 221 b 30 231 90 237 177 237 b 200 237 230 236 260 236 b 248 180 239 138 238 130 b 214 -3 210 -40 210 -40 b 210 -69 242 -83 287 -87 b 287 -46 310 114 321 175 b 324 195 328 215 332 235 l 354 235 b 379 235 419 259 444 294 b 426 289 409 288 384 288 l 342 288 b 373 453 403 593 414 639 b 426 659 433 678 433 694 b 433 710 427 718 422 720 z m 272 291 b 242 292 209 293 171 293 b 134 293 99 292 70 288 b 78 296 86 306 97 317 b 162 387 261 470 335 545 b 314 476 291 376 272 291 z"},"~":{"x_min":0,"x_max":436,"ha":436,"o":"m 30 160 b 45 166 60 168 76 168 b 139 168 202 129 259 129 b 287 129 313 138 337 165 b 327 163 317 162 307 162 b 233 162 169 206 113 206 b 83 206 56 194 30 160 z"},"D":{"x_min":0,"x_max":654,"ha":654,"o":"m 569 457 b 569 209 374 -61 162 -61 b 149 -61 137 -60 119 -57 b 161 136 252 431 335 622 b 325 629 316 632 307 632 b 267 632 237 559 229 538 b 200 461 96 148 56 -42 b 82 -79 121 -87 163 -87 b 397 -87 643 157 643 446 b 643 600 573 720 394 720 b 222 720 80 610 80 517 b 80 486 96 461 140 461 b 137 470 135 482 135 498 b 135 608 233 693 364 693 b 485 693 569 619 569 457 z"},"^":{"x_min":0,"x_max":204,"ha":204,"o":"m 10 441 b 40 468 72 483 113 498 b 145 468 168 444 187 406 b 199 412 204 424 204 437 b 204 480 146 548 114 548 b 87 548 0 499 0 460 b 0 454 2 446 10 441 z"},"0":{"x_min":0,"x_max":631,"ha":631,"o":"m 603 474 b 603 623 526 720 405 720 b 191 720 43 402 43 174 b 43 36 102 -87 234 -87 b 444 -87 603 203 603 474 z m 406 693 b 494 693 527 608 527 495 b 527 275 399 -53 248 -53 b 173 -53 127 29 127 153 b 127 336 225 693 406 693 z"},"F":{"x_min":0,"x_max":483,"ha":483,"o":"m 105 310 b 135 314 158 317 182 319 b 136 194 84 63 84 -8 b 84 -52 91 -82 152 -87 b 153 -39 164 40 204 174 l 248 323 b 396 326 416 327 438 358 b 390 359 330 370 263 374 b 296 478 332 591 359 657 b 420 651 470 640 501 640 b 536 640 565 654 614 710 b 590 703 568 700 540 700 b 477 700 411 715 341 715 b 189 715 66 643 66 539 b 66 497 86 469 132 461 b 123 487 119 510 119 540 b 119 623 150 662 279 662 b 292 662 305 661 318 660 b 279 579 239 477 202 375 b 130 373 74 356 71 305 z"},"`":{"x_min":0,"x_max":126,"ha":126,"o":"m 0 526 b 48 484 83 449 112 410 b 122 415 126 430 126 436 b 126 459 62 557 22 557 b 11 557 2 550 0 526 z"},"k":{"x_min":0,"x_max":447,"ha":447,"o":"m 195 142 b 195 81 221 -38 297 -38 b 367 -38 446 55 475 153 l 465 163 b 424 72 374 0 317 0 b 264 0 242 107 239 129 b 278 129 381 160 381 246 b 381 295 341 335 292 335 b 192 335 110 161 68 55 b 68 124 90 233 134 341 b 252 412 338 557 338 649 b 338 685 325 714 307 714 b 236 714 4 272 4 63 b 4 17 5 -31 39 -31 b 51 -31 66 -25 73 -13 b 85 9 155 283 273 283 b 299 283 323 266 323 238 b 323 170 225 142 195 142 z m 301 633 b 303 633 304 631 304 624 b 304 573 243 455 151 381 b 209 515 281 633 301 633 z"},"u":{"x_min":0,"x_max":439,"ha":439,"o":"m 276 271 b 238 196 156 10 94 10 b 61 10 58 60 58 77 b 58 144 103 244 125 278 b 114 290 95 298 88 298 b 58 298 0 147 0 71 b 0 17 30 -30 75 -30 b 125 -30 169 28 206 94 b 202 77 199 60 199 44 b 199 3 216 -30 269 -30 b 340 -30 427 45 470 153 l 457 162 b 408 59 332 0 290 0 b 266 0 257 16 257 40 b 257 107 324 234 324 245 b 324 262 287 269 276 271 z"},"]":{"x_min":0,"x_max":411,"ha":411,"o":"m 391 699 b 332 712 273 720 224 720 b 144 720 95 710 95 653 b 162 672 228 674 294 674 l 357 674 b 323 535 261 135 205 -26 b 163 -23 115 -18 81 -18 b 27 -18 -20 -35 -24 -88 b 25 -72 99 -71 168 -71 b 258 -71 284 71 296 132 b 324 270 381 642 391 699 z"},"U":{"x_min":0,"x_max":707,"ha":707,"o":"m 607 -75 b 550 -75 527 -50 527 42 b 527 230 677 665 711 688 b 692 708 672 720 661 720 b 607 720 535 423 487 224 b 461 117 390 -47 280 -47 b 220 -47 196 3 196 65 b 196 204 319 452 319 599 b 319 672 289 720 216 720 b 112 720 25 622 25 539 b 25 501 43 470 94 470 b 89 482 86 500 86 519 b 86 584 120 692 192 692 b 230 692 248 661 248 604 b 248 454 123 178 123 49 b 123 -28 167 -87 253 -87 b 350 -87 419 -11 469 98 b 463 58 460 25 460 7 b 460 -50 491 -99 541 -99 b 560 -99 582 -92 607 -75 z"},"o":{"x_min":0,"x_max":365,"ha":365,"o":"m 270 63 b 314 63 369 86 396 149 l 384 159 b 360 104 308 87 277 87 b 263 87 250 91 239 97 b 278 155 306 223 306 275 b 306 319 291 352 237 352 b 174 352 139 292 139 226 b 139 174 160 120 198 89 b 161 42 119 9 91 9 b 69 9 55 26 55 66 b 55 116 101 224 126 245 b 119 248 112 250 105 250 b 48 250 -10 141 -10 59 b -10 8 12 -32 69 -32 b 119 -32 176 13 222 73 b 237 66 252 63 270 63 z m 182 223 b 182 281 217 325 244 325 b 261 325 274 308 274 269 b 274 221 249 164 216 115 b 193 142 182 184 182 223 z"},"N":{"x_min":0,"x_max":641,"ha":641,"o":"m 663 720 b 633 720 607 688 600 671 b 584 634 467 260 439 72 b 429 137 410 275 395 408 b 377 569 359 720 279 720 b 202 720 79 618 79 527 b 79 495 95 470 139 470 b 136 479 134 492 134 505 b 134 570 185 683 250 683 b 261 683 265 673 265 660 b 265 645 260 626 258 619 b 138 211 79 40 46 -87 b 107 -87 134 12 295 589 b 313 462 366 100 386 -6 b 397 -66 422 -87 464 -87 b 466 69 593 535 663 720 z"},"+":{"x_min":0,"x_max":409,"ha":409,"o":"m 141 -11 b 178 3 188 69 190 155 l 247 155 b 275 155 317 160 350 184 b 322 187 258 192 190 193 b 189 258 184 319 181 346 b 157 313 152 271 152 243 l 152 193 b 70 191 6 180 -7 144 b 54 154 90 155 152 155 b 152 89 151 52 141 -11 z"},"G":{"x_min":0,"x_max":555,"ha":555,"o":"m 445 -87 b 444 -60 441 -36 441 -9 b 441 39 451 102 502 235 l 509 267 b 464 278 396 314 340 314 b 305 314 281 300 272 262 b 297 262 315 263 333 263 b 359 263 387 261 436 250 b 426 119 341 -53 236 -53 b 159 -53 102 20 102 141 b 102 363 292 689 436 689 b 480 689 496 666 496 636 b 496 582 446 503 418 483 b 426 466 438 460 449 460 b 497 460 537 536 537 606 b 537 665 509 719 433 719 b 243 719 22 418 22 161 b 22 4 104 -87 209 -87 b 288 -87 350 -36 398 31 b 393 14 391 -1 391 -15 b 391 -51 412 -74 445 -87 z"},"q":{"x_min":0,"x_max":402,"ha":402,"o":"m 311 271 b 332 271 344 291 344 308 b 344 336 310 357 265 357 b 131 357 -15 172 -15 56 b -15 -6 26 -30 60 -30 b 109 -30 165 22 218 98 b 182 -4 159 -138 159 -207 b 159 -264 175 -280 194 -280 b 236 -280 268 -202 268 -108 b 268 -67 262 -30 251 5 b 313 11 388 49 432 150 l 420 161 b 369 64 310 34 253 29 b 280 151 341 210 341 243 b 341 251 337 261 321 261 b 308 261 292 254 277 230 b 215 131 143 18 90 18 b 69 18 55 36 55 66 b 55 142 144 326 254 326 b 295 326 311 300 311 271 z m 246 -99 b 246 -158 236 -225 221 -225 b 215 -225 213 -214 213 -197 b 213 -161 222 -95 239 -24 b 244 -48 246 -72 246 -99 z"},"d":{"x_min":0,"x_max":474,"ha":474,"o":"m 295 315 b 296 320 297 324 297 329 b 297 350 281 360 253 360 b 129 360 -16 165 -16 54 b -16 -5 25 -30 59 -30 b 120 -30 198 49 263 156 b 251 110 244 72 244 49 b 244 14 260 -26 310 -26 b 378 -26 465 50 504 153 l 492 162 b 450 71 379 14 338 14 b 315 14 315 32 315 70 b 315 268 545 634 545 697 b 545 710 536 720 525 720 b 470 720 380 486 306 293 b 242 126 144 18 90 18 b 68 18 54 36 54 66 b 54 143 149 330 257 330 b 275 330 288 325 295 315 z"},"1":{"x_min":0,"x_max":366,"ha":366,"o":"m 298 720 b 226 641 125 566 88 547 b 88 523 97 518 113 518 b 125 518 152 530 228 584 b 191 434 145 104 84 -37 b 49 -43 11 -48 -24 -48 b -35 -48 -46 -47 -56 -46 b -38 -73 -4 -87 20 -87 b 74 -87 127 -78 190 -78 b 216 -78 242 -80 269 -83 b 260 -37 223 -27 172 -27 b 160 -27 146 -28 132 -30 b 203 120 257 393 284 577 b 290 617 307 656 307 689 b 307 700 305 714 298 720 z"},"5":{"x_min":0,"x_max":484,"ha":484,"o":"m 156 -55 b 81 -55 54 5 54 65 b 54 106 67 146 86 162 b 81 163 74 163 68 163 b 15 163 -13 106 -13 54 b -13 -7 26 -87 156 -87 b 310 -87 421 25 421 169 b 421 277 358 358 223 358 b 193 358 164 354 136 348 b 140 360 184 548 212 611 b 220 628 223 631 235 631 b 260 631 294 618 344 618 b 401 618 467 635 467 693 b 467 700 466 709 463 720 b 410 709 363 700 308 700 b 277 700 242 703 202 713 b 184 644 112 412 98 319 b 133 326 167 330 190 330 b 287 330 324 256 324 174 b 324 67 262 -55 156 -55 z"}}}
